<?xml version="1.0" encoding="UTF-8" standalone="no"?>
<!-- Created with Inkscape (http://www.inkscape.org/) -->
<svg
   xmlns:dc="http://purl.org/dc/elements/1.1/"
   xmlns:cc="http://creativecommons.org/ns#"
   xmlns:rdf="http://www.w3.org/1999/02/22-rdf-syntax-ns#"
   xmlns:svg="http://www.w3.org/2000/svg"
   xmlns="http://www.w3.org/2000/svg"
   xmlns:sodipodi="http://sodipodi.sourceforge.net/DTD/sodipodi-0.dtd"
   xmlns:inkscape="http://www.inkscape.org/namespaces/inkscape"
   width="437.8208"
   height="115.63"
   id="svg4007"
   sodipodi:version="0.32"
   inkscape:version="0.46"
   version="1.0"
   sodipodi:docname="Svalbard Global Seed Vault logo.svg"
   inkscape:output_extension="org.inkscape.output.svg.inkscape">
  <defs
     id="defs4009">
    <inkscape:perspective
       sodipodi:type="inkscape:persp3d"
       inkscape:vp_x="0 : 526.18109 : 1"
       inkscape:vp_y="0 : 1000 : 0"
       inkscape:vp_z="744.09448 : 526.18109 : 1"
       inkscape:persp3d-origin="372.04724 : 350.78739 : 1"
       id="perspective4015" />
  </defs>
  <sodipodi:namedview
     id="base"
     pagecolor="#ffffff"
     bordercolor="#666666"
     borderopacity="1.0"
     gridtolerance="10000"
     guidetolerance="10"
     objecttolerance="10"
     inkscape:pageopacity="0.0"
     inkscape:pageshadow="2"
     inkscape:zoom="1"
     inkscape:cx="375"
     inkscape:cy="104.86897"
     inkscape:document-units="px"
     inkscape:current-layer="layer1"
     showgrid="false"
     inkscape:window-width="1280"
     inkscape:window-height="750"
     inkscape:window-x="-8"
     inkscape:window-y="-8" />
  <metadata
     id="metadata4012">
    <rdf:RDF>
      <cc:Work
         rdf:about="">
        <dc:format>image/svg+xml</dc:format>
        <dc:type
           rdf:resource="http://purl.org/dc/dcmitype/StillImage" />
      </cc:Work>
    </rdf:RDF>
  </metadata>
  <g
     inkscape:label="Layer 1"
     inkscape:groupmode="layer"
     id="layer1"
     transform="translate(-134.94675,-460.18953)">
    <path
       d="M 263.56889,524.36087 C 264.31784,526.90058 266.43025,528.07921 268.99877,528.07921 C 270.09578,528.07921 271.43284,527.83916 272.28742,527.16942 C 272.98355,526.63412 273.41323,525.69793 273.41323,524.81456 C 273.41323,522.9686 271.88654,522.21965 270.28302,521.81877 L 267.23202,521.06982 C 266.00298,520.77696 264.87956,520.48171 263.91457,519.59833 C 262.95197,518.74377 262.41667,517.48592 262.41667,516.20166 C 262.41667,512.67056 265.46767,511.14626 268.6507,511.14626 C 271.7257,511.14626 274.18859,512.67056 275.17759,515.63996 L 273.09157,516.20166 C 272.69069,514.19486 270.54948,512.96583 268.59789,512.96583 C 266.85754,512.96583 264.66591,513.8756 264.66591,515.88 C 264.66591,517.94201 266.26943,518.3957 267.98096,518.79657 L 270.73671,519.46631 C 271.93935,519.73276 273.14439,520.08083 274.08057,520.88259 C 275.23039,521.81877 275.79211,523.07662 275.79211,524.52171 C 275.79211,526.18043 275.06957,527.67833 273.7325,528.69373 C 272.39544,529.71153 270.60228,530.03079 268.94595,530.03079 C 265.19882,530.03079 262.73833,528.37206 261.50689,524.81456 L 263.56889,524.36087 z"
       style="fill:#2f2d34;fill-opacity:1;fill-rule:nonzero;stroke:none"
       id="path3717" />
    <path
       d="M 285.04834,529.76434 L 282.8543,529.76434 L 278.01255,516.17525 L 280.33861,516.17525 L 284.13856,527.22224 L 287.85689,516.17525 L 289.72926,516.17525 L 285.04834,529.76434 z"
       style="fill:#2f2d34;fill-opacity:1;fill-rule:nonzero;stroke:none"
       id="path3719" />
    <path
       d="M 301.31155,521.33868 L 301.31155,520.74816 C 301.31155,518.36929 300.26734,517.45951 297.85967,517.45951 C 296.14812,517.45951 294.5182,517.99482 294.14373,519.86719 L 292.18975,519.54552 C 292.56422,516.71056 295.56001,515.82719 298.0469,515.82719 C 299.5184,515.82719 301.20593,515.98802 302.22133,517.16426 C 303.34475,518.36929 303.34475,520.08083 303.34475,521.63154 L 303.34475,526.90058 C 303.34475,527.89197 303.37116,528.88097 303.63761,529.76434 L 301.55159,529.76434 L 301.31155,527.22224 C 300.34896,529.17622 298.71664,530.03079 296.55141,530.03079 C 294.0093,530.03079 291.81527,528.61451 291.81527,525.91158 C 291.81527,524.27926 292.83307,522.80777 294.33097,522.14044 C 295.85526,521.41789 297.85967,521.33868 299.54479,521.33868 L 301.31155,521.33868 z M 301.31155,522.91579 L 299.57361,522.91579 C 297.43238,522.91579 294.06212,523.21105 294.06212,526.01961 C 294.06212,527.70473 295.5072,528.40087 297.00509,528.40087 C 299.57361,528.40087 301.31155,526.20684 301.31155,523.79916 L 301.31155,522.91579 z"
       style="fill:#2f2d34;fill-opacity:1;fill-rule:nonzero;stroke:none"
       id="path3721" />
    <path
       d="M 308.32093,511.41272 L 310.40694,511.41272 L 310.40694,529.76434 L 308.32093,529.76434 L 308.32093,511.41272 z"
       style="fill:#2f2d34;fill-opacity:1;fill-rule:nonzero;stroke:none"
       id="path3723" />
    <path
       d="M 316.29051,529.76434 L 315.2751,529.76434 L 315.2751,511.41272 L 317.36112,511.41272 L 317.36112,518.4221 L 317.46673,518.4221 C 318.3237,516.81618 319.52874,515.82719 321.45392,515.82719 C 323.11265,515.82719 324.71857,516.71056 325.62595,518.04762 C 326.53573,519.38469 326.9102,521.20425 326.9102,522.78136 C 326.9102,526.23324 325.25147,530.03079 321.24028,530.03079 C 319.44712,530.03079 317.89643,528.96258 317.06585,527.43589 L 316.29051,529.76434 z M 321.07945,517.51232 C 318.94063,517.51232 317.36112,519.67995 317.36112,521.9532 L 317.36112,523.58552 C 317.36112,524.97539 317.60116,525.9932 318.13647,526.79495 C 318.7774,527.73114 319.92962,528.34566 321.07945,528.34566 C 323.8616,528.34566 324.66336,525.37627 324.66336,523.12943 C 324.66336,520.85618 323.96722,517.51232 321.07945,517.51232"
       style="fill:#2f2d34;fill-opacity:1;fill-rule:nonzero;stroke:none"
       id="path3725" />
    <path
       d="M 339.61591,521.33868 L 339.61591,520.74816 C 339.61591,518.36929 338.5741,517.45951 336.16643,517.45951 C 334.45249,517.45951 332.82256,517.99482 332.44809,519.86719 L 330.49651,519.54552 C 330.87098,516.71056 333.86677,515.82719 336.35366,515.82719 C 337.82515,515.82719 339.51029,515.98802 340.52569,517.16426 C 341.64911,518.36929 341.64911,520.08083 341.64911,521.63154 L 341.64911,526.90058 C 341.64911,527.89197 341.67552,528.88097 341.94437,529.76434 L 339.85836,529.76434 L 339.61591,527.22224 C 338.65332,529.17622 337.0234,530.03079 334.85577,530.03079 C 332.31367,530.03079 330.11963,528.61451 330.11963,525.91158 C 330.11963,524.27926 331.13744,522.80777 332.63533,522.14044 C 334.15963,521.41789 336.16643,521.33868 337.85156,521.33868 L 339.61591,521.33868 z M 339.61591,522.91579 L 337.87796,522.91579 C 335.73914,522.91579 332.36647,523.21105 332.36647,526.01961 C 332.36647,527.70473 333.81157,528.40087 335.31186,528.40087 C 337.87796,528.40087 339.61591,526.20684 339.61591,523.79916 L 339.61591,522.91579 z"
       style="fill:#2f2d34;fill-opacity:1;fill-rule:nonzero;stroke:none"
       id="path3727" />
    <path
       d="M 348.39204,516.17525 L 348.39204,519.35829 L 348.44486,519.35829 C 349.08578,517.51232 350.238,515.80078 352.42964,515.80078 L 353.20739,515.85359 L 353.20739,517.86039 L 352.77771,517.86039 C 351.17419,517.86039 350.04837,518.63575 349.27542,520.00162 C 348.71131,520.99061 348.60568,521.84517 348.60568,522.91579 L 348.60568,529.76434 L 346.51967,529.76434 L 346.51967,516.17525 L 348.39204,516.17525 z"
       style="fill:#2f2d34;fill-opacity:1;fill-rule:nonzero;stroke:none"
       id="path3729" />
    <path
       d="M 364.94811,511.41272 L 367.03652,511.41272 L 367.03652,529.76434 L 365.13775,529.76434 L 365.13775,527.35667 L 365.08254,527.35667 C 364.22557,529.0682 362.8357,530.03079 360.83129,530.03079 C 359.03814,530.03079 357.67227,529.17622 356.68328,527.73114 C 355.74709,526.33886 355.39902,524.62733 355.39902,522.9686 C 355.39902,519.57193 357.08416,515.82719 361.01613,515.82719 C 362.75648,515.82719 363.98552,516.65536 364.94811,518.02122 L 364.94811,511.41272 z M 364.94811,521.71315 C 364.94811,520.77696 364.81609,519.81438 364.25198,519.01022 C 363.58464,518.04762 362.37961,517.48592 361.20577,517.48592 C 360.02714,517.48592 359.00934,518.20846 358.45003,519.19745 C 357.83311,520.26807 357.64587,521.49951 357.64587,522.72855 C 357.64587,524.94899 358.23399,528.29285 361.15056,528.29285 C 362.3532,528.29285 363.45021,527.62312 364.14635,526.66053 C 364.78727,525.77955 364.94811,524.89618 364.94811,523.87838 L 364.94811,521.71315 z"
       style="fill:#2f2d34;fill-opacity:1;fill-rule:nonzero;stroke:none"
       id="path3731" />
    <path
       d="M 271.59368,557.10334 L 271.59368,552.15597 L 282.48943,552.15597 L 282.48943,566.33796 L 279.66887,566.33796 L 278.7783,563.28456 C 276.8099,565.68024 274.64468,566.72204 271.55528,566.72204 C 263.78734,566.72204 260.58031,560.26956 260.58031,553.31539 C 260.58031,546.12837 264.097,539.44545 272.09537,539.44545 C 277.81331,539.44545 281.67807,542.92133 282.48943,548.52404 L 276.61547,549.3354 C 276.34662,546.66848 274.91594,544.42884 271.93935,544.42884 C 267.57528,544.42884 266.91756,550.10836 266.91756,553.39221 C 266.91756,556.83208 267.88254,561.70024 272.2106,561.70024 C 274.91594,561.70024 276.7715,559.80627 276.61547,557.10334 L 271.59368,557.10334 z"
       style="fill:#2f2d34;fill-opacity:1;fill-rule:nonzero;stroke:none"
       id="path3733" />
    <path
       d="M 287.35519,539.82953 L 293.03471,539.82953 L 293.03471,566.33556 L 287.35519,566.33556 L 287.35519,539.82953 z"
       style="fill:#2f2d34;fill-opacity:1;fill-rule:nonzero;stroke:none"
       id="path3735" />
    <path
       d="M 315.40953,556.67606 C 315.40953,562.28116 311.73921,566.72204 305.94207,566.72204 C 299.91447,566.72204 296.63062,562.16354 296.63062,556.48402 C 296.63062,550.76608 299.95288,546.32281 305.94207,546.32281 C 312.08487,546.32281 315.40953,550.88131 315.40953,556.67606 M 302.73503,555.9055 C 302.73503,558.14514 302.69662,562.93649 305.94207,562.93649 C 309.14909,562.93649 309.30273,559.07173 309.30273,556.71446 C 309.30273,555.17096 309.2259,553.31539 308.6858,551.8463 C 308.22251,550.57165 307.29353,550.06995 305.98047,550.06995 C 302.92947,550.06995 302.73503,553.66346 302.73503,555.9055"
       style="fill:#2f2d34;fill-opacity:1;fill-rule:nonzero;stroke:none"
       id="path3737" />
    <path
       d="M 318.92623,539.82953 L 324.60575,539.82953 L 324.60575,549.18177 L 324.75938,549.18177 C 325.72676,547.24939 327.34949,546.32281 329.55072,546.32281 C 335.15343,546.32281 336.85296,551.88711 336.85296,556.52242 C 336.85296,561.66184 334.80536,566.72204 328.89299,566.72204 C 326.07243,566.72204 324.72096,565.68024 323.29028,563.32297 C 322.59655,564.17273 322.3637,565.29376 322.01564,566.33796 L 318.92623,566.33796 L 318.92623,539.82953 z M 324.68256,558.10674 C 324.68256,559.18935 324.72096,560.4256 325.34029,561.39059 C 325.88039,562.24035 326.69175,562.74445 327.73597,562.74445 C 330.94059,562.74445 330.94059,558.64684 330.94059,556.52242 C 330.94059,554.31879 330.94059,550.22358 327.81278,550.22358 C 325.06904,550.22358 324.68256,553.20017 324.68256,555.28617 L 324.68256,558.10674 z"
       style="fill:#2f2d34;fill-opacity:1;fill-rule:nonzero;stroke:none"
       id="path3739" />
    <path
       d="M 352.07677,566.33796 C 351.84392,565.33216 351.76711,564.29036 351.80552,563.28456 C 350.1828,565.60342 348.48326,566.72204 345.54748,566.72204 C 342.06919,566.72204 339.36386,564.86887 339.36386,561.16014 C 339.36386,558.26037 341.18101,556.29197 343.76873,555.32459 C 346.00837,554.47482 349.13859,554.31879 351.53426,554.08834 L 351.53426,553.62505 C 351.53426,552.77529 351.61348,551.76949 351.03256,551.03494 C 350.53086,550.37961 349.56587,550.10836 348.7137,550.10836 C 346.89895,550.10836 345.31464,551.03494 345.31464,552.96732 L 339.94238,552.46562 C 340.52329,547.71269 345.16101,546.32281 349.29462,546.32281 C 351.30381,546.32281 353.92994,546.7861 355.51425,548.09916 C 357.52344,549.72188 357.33141,551.88711 357.33141,554.24437 L 357.33141,563.39978 C 357.33141,564.40558 357.40823,565.37057 357.71788,566.33796 L 352.07677,566.33796 z M 351.53426,556.94731 C 349.37143,557.18015 345.39145,557.68186 345.39145,560.54081 C 345.39145,562.08672 346.31803,563.13092 347.90475,563.13092 C 349.06177,563.13092 350.10598,562.5116 350.76131,561.50821 C 351.57507,560.26956 351.53426,559.11013 351.53426,557.72026 L 351.53426,556.94731 z"
       style="fill:#2f2d34;fill-opacity:1;fill-rule:nonzero;stroke:none"
       id="path3741" />
    <path
       d="M 361.8539,539.82953 L 367.53102,539.82953 L 367.53102,566.33556 L 361.8539,566.33556 L 361.8539,539.82953 z"
       style="fill:#2f2d34;fill-opacity:1;fill-rule:nonzero;stroke:none"
       id="path3743" />
    <path
       d="M 397.94023,547.40302 C 397.16727,545.16338 395.73899,544.2728 393.38172,544.2728 C 391.7206,544.2728 389.709,544.70009 389.709,546.7477 C 389.709,548.67767 392.03026,549.14337 393.53535,549.41222 C 395.69818,549.87551 398.59555,550.41802 400.45352,551.65426 C 402.61395,553.08494 403.9294,555.28617 403.9294,557.9123 C 403.9294,560.50241 402.69316,562.9749 400.64556,564.55921 C 398.51874,566.22033 395.62137,566.72204 392.95444,566.72204 C 387.97106,566.72204 383.44856,564.55921 382.25312,559.38138 L 387.97106,558.06833 C 388.74401,560.85048 390.75321,561.81547 393.49695,561.81547 C 395.2733,561.81547 397.63056,561.16014 397.63056,558.9565 C 397.63056,556.75527 394.61796,556.33039 392.99525,555.98232 C 388.28071,555.01492 383.643,553.62505 383.643,547.82791 C 383.643,545.35542 384.60799,543.1926 386.50196,541.60828 C 388.43435,539.98556 390.7148,539.44545 393.14888,539.44545 C 397.7866,539.44545 401.57214,541.06577 403.19486,545.66508 L 397.94023,547.40302 z"
       style="fill:#2f2d34;fill-opacity:1;fill-rule:nonzero;stroke:none"
       id="path3745" />
    <path
       d="M 412.66233,557.48981 L 412.62152,558.45481 C 412.62152,560.77366 413.93698,562.66523 416.40947,562.66523 C 418.14741,562.66523 419.88776,561.39059 419.88776,559.57582 L 425.14239,559.9623 C 425.14239,560.92729 422.86194,566.72204 416.21503,566.72204 C 410.34347,566.72204 406.51712,562.62683 406.51712,556.79368 C 406.51712,550.99654 409.957,546.32281 416.0614,546.32281 C 418.80514,546.32281 421.6257,547.55905 423.24842,549.7987 C 424.87114,552.04074 425.29602,554.82289 425.25762,557.48981 L 412.66233,557.48981 z M 419.57809,554.12675 C 419.46047,552.00233 418.76674,550.03155 416.29185,550.03155 C 413.78095,550.03155 412.81596,551.88711 412.62152,554.12675 L 419.57809,554.12675 z"
       style="fill:#2f2d34;fill-opacity:1;fill-rule:nonzero;stroke:none"
       id="path3747" />
    <path
       d="M 433.7985,557.48981 L 433.7577,558.45481 C 433.7577,560.77366 435.07315,562.66523 437.54565,562.66523 C 439.28359,562.66523 441.02393,561.39059 441.02393,559.57582 L 446.27856,559.9623 C 446.27856,560.92729 443.99812,566.72204 437.3512,566.72204 C 431.47724,566.72204 427.65329,562.62683 427.65329,556.79368 C 427.65329,550.99654 431.09077,546.32281 437.19757,546.32281 C 439.94132,546.32281 442.76187,547.55905 444.38219,549.7987 C 446.00731,552.04074 446.4298,554.82289 446.39379,557.48981 L 433.7985,557.48981 z M 440.71427,554.12675 C 440.59665,552.00233 439.90051,550.03155 437.42801,550.03155 C 434.91713,550.03155 433.95213,551.88711 433.7577,554.12675 L 440.71427,554.12675 z"
       style="fill:#2f2d34;fill-opacity:1;fill-rule:nonzero;stroke:none"
       id="path3749" />
    <path
       d="M 461.34394,566.33796 L 461.34394,563.28456 L 461.26712,563.28456 C 460.18451,565.37057 458.56419,566.72204 456.05329,566.72204 C 450.5274,566.72204 448.9815,561.31377 448.9815,556.75527 C 448.9815,552.07915 450.45059,546.32281 456.16612,546.32281 C 458.36976,546.32281 459.83885,546.97814 461.07509,548.7953 L 461.07509,539.82953 L 466.75461,539.82953 L 466.75461,566.33796 L 461.34394,566.33796 z M 461.07509,555.43981 C 461.07509,553.54823 460.92146,550.3028 458.33134,550.3028 C 455.08591,550.3028 454.97068,554.55164 454.97068,556.9089 C 454.97068,559.03332 455.28034,562.62683 458.1009,562.62683 C 459.1427,562.62683 460.1077,561.93309 460.57099,561.04252 C 461.03668,560.15434 461.07509,559.11013 461.07509,558.14514 L 461.07509,555.43981 z"
       style="fill:#2f2d34;fill-opacity:1;fill-rule:nonzero;stroke:none"
       id="path3751" />
    <path
       d="M 495.46428,566.33796 L 488.77896,566.33796 L 480.81898,539.82953 L 487.42749,539.82953 L 492.75894,558.76447 L 498.24643,539.82953 L 503.46266,539.82953 L 495.46428,566.33796 z"
       style="fill:#2f2d34;fill-opacity:1;fill-rule:nonzero;stroke:none"
       id="path3753" />
    <path
       d="M 516.14196,566.33796 C 515.90911,565.33216 515.8323,564.29036 515.8731,563.28456 C 514.24799,565.60342 512.55085,566.72204 509.61267,566.72204 C 506.13438,566.72204 503.43145,564.86887 503.43145,561.16014 C 503.43145,558.26037 505.24621,556.29197 507.83632,555.32459 C 510.07596,554.47482 513.20618,554.31879 515.59946,554.08834 L 515.59946,553.62505 C 515.59946,552.77529 515.68107,551.76949 515.10016,551.03494 C 514.59846,550.37961 513.63106,550.10836 512.7813,550.10836 C 510.96654,550.10836 509.37983,551.03494 509.37983,552.96732 L 504.00996,552.46562 C 504.58848,547.71269 509.2262,546.32281 513.35981,546.32281 C 515.37141,546.32281 517.99752,546.7861 519.58183,548.09916 C 521.59104,549.72188 521.3966,551.88711 521.3966,554.24437 L 521.3966,563.39978 C 521.3966,564.40558 521.47342,565.37057 521.78307,566.33796 L 516.14196,566.33796 z M 515.59946,556.94731 C 513.43903,557.18015 509.45664,557.68186 509.45664,560.54081 C 509.45664,562.08672 510.38563,563.13092 511.96994,563.13092 C 513.12936,563.13092 514.17117,562.5116 514.8289,561.50821 C 515.64026,560.26956 515.59946,559.11013 515.59946,557.72026 L 515.59946,556.94731 z"
       style="fill:#2f2d34;fill-opacity:1;fill-rule:nonzero;stroke:none"
       id="path3755" />
    <path
       d="M 537.1221,566.33796 L 537.1221,562.9749 L 537.04529,562.9749 C 536.12111,565.44739 534.10951,566.72204 531.44498,566.72204 C 529.47419,566.72204 527.77226,566.29955 526.65363,564.52081 C 525.57102,562.82127 525.68625,560.9657 525.68625,559.07173 L 525.68625,546.70928 L 531.36577,546.70928 L 531.36577,559.07173 C 531.36577,560.65604 531.52179,562.16354 533.531,562.16354 C 534.80564,562.16354 535.88586,561.42899 536.38995,560.26956 C 536.77643,559.38138 536.69962,558.26037 536.69962,557.25696 L 536.69962,546.70928 L 542.37914,546.70928 L 542.37914,566.33796 L 537.1221,566.33796 z"
       style="fill:#2f2d34;fill-opacity:1;fill-rule:nonzero;stroke:none"
       id="path3757" />
    <path
       d="M 546.78401,539.82953 L 552.46113,539.82953 L 552.46113,566.33556 L 546.78401,566.33556 L 546.78401,539.82953 z"
       style="fill:#2f2d34;fill-opacity:1;fill-rule:nonzero;stroke:none"
       id="path3759" />
    <path
       d="M 568.45789,551.19097 L 564.24505,551.19097 L 564.24505,558.99492 C 564.24505,561.58502 564.4395,562.16354 566.87598,562.16354 C 567.37527,562.16354 568.10982,562.08672 568.76755,562.00991 L 568.76755,566.29955 C 567.64652,566.56841 566.25665,566.72204 565.21484,566.72204 C 563.58973,566.72204 561.4245,566.49159 560.14985,565.44739 C 558.56553,564.13433 558.56553,561.77706 558.56553,559.84468 L 558.56553,551.19097 L 555.3585,551.19097 L 555.3585,546.66848 L 558.79838,546.66848 L 559.30008,540.91214 L 564.24505,540.52566 L 564.24505,546.66848 L 568.45789,546.66848 L 568.45789,551.19097 z"
       style="fill:#2f2d34;fill-opacity:1;fill-rule:nonzero;stroke:none"
       id="path3761" />
    <path
       d="M 210.9097,492.55219 C 190.97856,492.55219 166.26569,510.99743 166.26569,530.92857 C 166.26569,550.8597 190.97856,564.72244 210.9097,564.72244 C 230.84324,564.72244 246.99602,548.56966 246.99602,528.63612 C 246.99602,508.70498 230.84324,492.55219 210.9097,492.55219"
       style="fill:#ffffff;fill-opacity:1;fill-rule:nonzero;stroke:none"
       id="path3763" />
    <path
       d="M 192.56048,539.44065 C 189.73032,537.26102 186.6121,535.74392 183.39066,534.86295 C 180.19803,533.99158 176.90219,533.74673 173.68315,534.114 L 173.67595,534.10679 C 174.67454,540.78251 178.14803,547.11257 183.88997,551.54144 C 189.52868,555.88629 196.30521,557.59784 202.7721,556.86809 L 202.76729,556.85128 C 202.73368,556.62564 202.67367,556.4048 202.63526,556.17676 C 201.51425,549.76269 198.10557,543.71349 192.56048,539.44065"
       style="fill:#74c33c;fill-opacity:1;fill-rule:nonzero;stroke:none"
       id="path3765" />
    <path
       d="M 239.72498,525.25385 C 237.93904,509.42752 223.66101,498.04688 207.83709,499.83283 C 192.54847,501.56598 181.41507,514.95102 182.28644,530.12442 C 186.81615,531.49028 191.1898,533.68671 195.189,536.76652 C 202.25359,542.2156 207.04494,549.36421 209.407,557.27618 C 211.01532,557.36979 212.65484,557.33378 214.31117,557.14655 C 230.13269,555.35819 241.51574,541.07778 239.72498,525.25385"
       style="fill:#cfefee;fill-opacity:1;fill-rule:nonzero;stroke:none"
       id="path3767" />
    <path
       d="M 246.81598,501.45075 C 242.86,489.24434 234.66719,478.35099 222.82325,471.19518 C 196.69889,455.40486 162.71778,463.78491 146.92747,489.91167 C 131.13234,516.04083 139.51001,550.02675 165.63676,565.81706 C 185.34705,577.72341 209.51262,575.88224 226.98087,563.05892 C 227.54258,562.64123 227.78263,562.45879 228.01548,562.20914 C 228.45236,561.75065 228.6468,561.31137 228.32754,560.9873 C 227.99387,560.59603 227.17771,560.93689 226.53918,561.22015 C 221.83666,563.46699 216.59162,564.76325 211.03452,564.76325 C 206.92491,564.76325 202.99053,564.04071 199.31061,562.77566 C 193.35744,561.52982 187.71392,559.35498 182.5553,555.3798 C 173.88718,548.68968 168.64935,539.14779 167.14906,529.0802 L 167.16106,529.08261 C 169.75598,528.78975 172.38209,528.77295 175.00101,529.01779 L 174.9866,528.71533 C 174.9866,527.20063 175.10903,525.71954 175.29147,524.25525 C 175.77877,519.31268 177.32227,514.42531 180.04201,509.92202 C 183.29704,504.54016 187.81233,500.38014 192.99976,497.53558 C 198.30961,494.45817 204.45483,492.66742 211.03452,492.66742 C 230.6896,492.66742 246.64556,508.41212 247.04163,527.97359 C 247.11125,528.47288 247.25048,528.92177 247.59374,529.00339 C 248.03063,529.13782 248.33789,528.76334 248.53952,528.16082 C 248.64995,527.83916 248.70276,527.5415 248.81559,526.84537 C 250.13344,518.31168 249.4373,509.54755 246.81598,501.45075"
       style="fill:#2f2d34;fill-opacity:1;fill-rule:nonzero;stroke:none"
       id="path3769" />
    <path
       d="M 175.29147,524.25525 C 175.10903,525.71954 174.9866,527.20063 174.9866,528.71533 L 175.00101,529.01779 L 175.14023,529.02739 C 175.08262,527.43828 175.13304,525.84437 175.29147,524.25525"
       style="fill:#4f4c4c;fill-opacity:1;fill-rule:nonzero;stroke:none"
       id="path3771" />
    <path
       d="M 211.22896,564.23034 L 210.8785,564.21835 L 211.23136,564.23994 L 211.22896,564.23034 z"
       style="fill:#ffffff;fill-opacity:1;fill-rule:nonzero;stroke:none"
       id="path3773" />
  </g>
</svg>
