<?xml version="1.0" standalone="no"?>
<!DOCTYPE svg PUBLIC "-//W3C//DTD SVG 20010904//EN"
 "http://www.w3.org/TR/2001/REC-SVG-20010904/DTD/svg10.dtd">
<svg version="1.0" xmlns="http://www.w3.org/2000/svg"
 width="266.000000pt" height="148.000000pt" viewBox="0 0 266.000000 148.000000"
 preserveAspectRatio="xMidYMid meet">
<metadata>
Created by potrace 1.10, written by Peter Selinger 2001-2011
</metadata>
<g transform="translate(0.000000,148.000000) scale(0.100000,-0.100000)"
fill="#444444" stroke="none">
<path d="M1681 1434 c-19 -13 -57 -46 -85 -72 -29 -26 -75 -68 -104 -94 -29
-27 -51 -48 -48 -48 3 0 -21 -26 -52 -59 -78 -80 -132 -141 -132 -150 0 -4
-12 -18 -26 -32 -33 -30 -74 -110 -74 -143 0 -16 11 -33 31 -49 26 -20 29 -27
20 -43 -6 -10 -17 -37 -25 -59 l-13 -40 -79 -3 c-128 -5 -204 28 -156 68 10 8
45 47 78 85 32 39 61 72 64 75 22 21 41 63 32 72 -24 24 -181 -140 -197 -205
-4 -14 -13 -31 -21 -37 -19 -17 -49 -8 -50 15 -2 35 -4 37 -20 21 -8 -9 -45
-37 -80 -62 -46 -33 -71 -45 -86 -41 -14 4 -42 -5 -77 -25 -58 -32 -208 -112
-249 -132 -22 -11 -27 -41 -5 -41 6 0 15 -3 19 -7 10 -11 26 -10 20 1 -5 8 12
13 84 25 14 2 77 13 140 24 63 12 194 35 290 51 96 17 199 37 228 45 53 13 54
13 48 -8 -3 -11 -6 -39 -6 -62 l0 -41 -167 -17 c-93 -9 -211 -23 -263 -31 -52
-8 -169 -24 -260 -35 -143 -18 -322 -50 -370 -66 -13 -5 -13 -6 0 -13 8 -5
134 5 280 20 146 16 379 38 519 49 140 11 258 23 262 26 5 3 9 -2 9 -10 0 -25
46 -99 73 -120 35 -26 119 -25 177 2 30 15 60 41 90 81 l45 60 360 1 c399 0
514 4 595 20 65 12 98 36 35 26 -109 -18 -252 -25 -592 -27 -205 -2 -375 0
-379 4 -4 4 -3 7 2 7 6 0 20 18 33 40 17 31 28 40 49 40 40 0 270 27 487 58
137 19 233 26 343 27 97 0 151 4 149 10 -2 6 -17 11 -33 13 -16 1 -75 12 -130
22 -169 33 -359 50 -561 50 l-193 0 4 22 c2 17 20 29 82 54 169 66 418 220
462 284 27 41 27 44 0 70 -27 25 -79 40 -139 40 -52 0 -133 -44 -220 -119 -44
-38 -54 -43 -70 -33 -34 21 -49 15 -48 -20 1 -18 3 -25 6 -15 6 22 33 22 33
-1 0 -55 -182 -170 -304 -193 -30 -5 -102 -8 -161 -7 -104 3 -106 3 -90 23 8
11 29 41 46 67 54 83 254 278 286 278 8 0 21 7 29 15 9 8 12 15 9 15 -4 0 14
20 39 46 25 25 51 42 56 39 6 -4 10 -3 9 2 -4 23 2 35 16 29 8 -3 15 -2 15 3
0 4 9 18 20 31 65 75 -64 -16 -152 -107 -42 -44 -54 -51 -69 -42 -29 15 -23
35 18 66 56 41 66 52 122 122 29 35 50 69 48 75 -6 20 -41 15 -76 -10z m42
-17 c-21 -38 -106 -126 -116 -120 -5 3 -7 1 -4 -4 4 -6 -4 -18 -18 -27 -14 -9
-25 -13 -25 -9 -1 5 -8 -5 -16 -20 -14 -26 -14 -31 2 -54 16 -26 16 -27 -12
-47 -86 -62 -254 -251 -286 -321 -14 -31 -25 -31 -49 -4 -13 15 -17 30 -12 48
8 33 42 91 54 91 5 0 9 5 9 11 0 6 20 35 45 63 25 29 45 55 45 57 0 13 233
238 241 233 5 -3 9 1 9 9 0 8 12 22 26 32 14 9 33 24 43 34 24 24 64 51 69 47
2 -3 0 -11 -5 -19z m501 -292 c20 -9 36 -19 36 -23 0 -8 -57 -70 -81 -87 -8
-5 -34 -23 -59 -39 -25 -16 -58 -38 -74 -49 -37 -25 -261 -137 -274 -137 -6 0
-12 -5 -14 -12 -2 -6 -9 -8 -16 -5 -14 10 27 102 62 137 14 14 32 41 40 60 8
19 15 31 16 27 0 -5 26 14 57 42 31 28 61 51 65 51 4 0 17 8 28 18 50 43 136
49 214 17z m-1154 -232 c-1 -5 -23 -33 -50 -63 -28 -30 -50 -58 -50 -62 0 -4
-10 -13 -22 -19 -19 -10 -21 -10 -12 2 16 21 87 111 104 131 15 18 30 24 30
11z m680 -28 c0 -4 -39 -91 -47 -104 -9 -15 -489 -118 -500 -107 -1 1 5 25 14
53 l16 51 151 4 c134 4 159 8 221 32 39 14 84 38 100 51 29 23 45 31 45 20z
m-48 -142 c-6 -2 -10 -9 -6 -14 6 -10 3 -10 -36 -14 -85 -6 -363 -57 -449 -81
-18 -5 -23 -4 -19 7 3 9 32 18 84 25 80 10 176 30 314 63 69 17 142 26 112 14z
m-820 -54 c23 9 28 7 33 -9 9 -27 92 -44 181 -36 58 4 74 3 74 -8 0 -13 -131
-41 -440 -92 -85 -14 -199 -34 -253 -45 -54 -10 -106 -19 -114 -19 -9 0 46 32
121 70 102 53 143 69 161 64 15 -4 25 -2 25 5 0 6 6 11 13 11 6 0 41 20 76 45
63 43 64 43 80 24 14 -17 21 -19 43 -10z m792 -11 c-3 -13 -17 -47 -31 -75
-23 -50 -27 -53 -61 -53 -20 0 -61 -5 -91 -10 -68 -12 -243 -41 -288 -48 -32
-4 -33 -4 -32 34 1 52 13 90 27 87 7 -2 31 3 54 11 69 22 191 47 306 61 59 7
111 13 115 14 5 0 5 -9 1 -21z m536 7 c74 -8 161 -18 193 -21 31 -4 56 -9 53
-11 -2 -2 -39 -6 -82 -9 -44 -3 -126 -12 -184 -20 -214 -30 -495 -63 -533 -64
-18 0 -18 1 0 28 11 15 25 46 33 70 l13 42 186 0 c102 0 247 -7 321 -15z
m-621 -172 c-8 -10 -18 -21 -24 -25 -5 -4 -6 -8 -2 -8 5 0 2 -7 -7 -15 -12
-12 -49 -17 -163 -21 -81 -3 -164 -6 -183 -7 -29 -2 -36 2 -38 19 -2 17 3 21
32 22 20 1 91 10 158 21 120 20 169 26 217 29 21 2 22 0 10 -15z m-435 -59 c4
-9 4 -19 2 -21 -2 -3 -91 -11 -198 -19 -198 -14 -443 -38 -558 -54 -117 -16
-167 -20 -143 -10 27 11 321 51 628 85 126 14 231 28 234 31 10 10 29 3 35
-12z m358 -30 c9 -6 -1 -34 -13 -34 -5 0 -27 -20 -49 -44 -33 -35 -52 -47 -91
-55 -28 -6 -51 -11 -53 -11 -2 0 -13 9 -25 19 -12 11 -31 18 -42 16 -10 -2
-22 1 -25 7 -4 7 -2 8 4 4 7 -4 12 -3 12 2 0 6 -7 12 -15 16 -8 3 -15 16 -15
30 0 14 -6 28 -12 33 -18 11 306 28 324 17z"/>
</g>
</svg>
